<?xml version="1.0" encoding="UTF-8"?>
<svg id="Layer_1" xmlns="http://www.w3.org/2000/svg" baseProfile="tiny" version="1.2" viewBox="0 0 100 100">
  <!-- Generator: Adobe Illustrator 29.3.1, SVG Export Plug-In . SVG Version: 2.1.0 Build 151)  -->
  <path d="M55.69,21.6c-.15-.1-.3-.19-.44-.34.14.14.29.25.44.34" fill="#c2d500"/>
  <path d="M54.75,20.5c-.03-.06-.05-.13-.07-.2.02.07.04.13.07.2" fill="#c2d500"/>
  <path d="M54.75,32.65c-.03-.06-.05-.13-.07-.2.02.07.04.13.07.2" fill="#c1d247"/>
  <path d="M55.24,21.26c-.16-.16-.26-.32-.36-.48.1.17.21.34.36.48" fill="#c2d500"/>
  <path d="M55.24,33.41c-.16-.16-.26-.32-.36-.48.1.17.21.34.36.48" fill="#c1d247"/>
  <path d="M72.53,75.86l-10.42,2.8c-1.48.4-3.57-.16-4.65-1.24l-1.93-1.92c-1.08-1.08-1.08-2.84,0-3.92l.31-.31c1.08-1.08,1.64-3.17,1.24-4.64l-2.8-10.42c-.4-1.47.49-2.36,1.96-1.97l10.43,2.78c1.48.39,3.57-.17,4.65-1.25l.3-.3c1.08-1.08,2.85-1.08,3.93,0l1.92,1.92c1.08,1.08,1.64,3.17,1.25,4.64l-2.78,10.43c-.39,1.48-1.92,3.01-3.4,3.4M48.96,68.94c-.61-.61-.78-2.31-.39-3.79l.77-2.86c.4-1.47,1.04-1.48,1.44,0l.77,2.86c.4,1.48.23,3.18-.38,3.78-.61.61-1.6.61-2.21,0M62.32,49.29l2.86-.77c1.47-.4,3.18-.22,3.78.38.61.61.61,1.6,0,2.2-.6.61-2.31.78-3.78.39l-2.87-.77c-1.48-.39-1.47-1.04,0-1.44M43.85,45.79l-10.43-2.78c-1.47-.39-3.57.17-4.64,1.25l-.3.3c-1.08,1.08-2.85,1.08-3.93,0l-1.92-1.92c-1.08-1.08-1.64-3.17-1.25-4.64l2.79-10.43c.39-1.47,1.92-3.01,3.4-3.4l10.42-2.8c1.47-.4,3.57.16,4.65,1.24l1.92,1.92c1.08,1.08,1.08,2.85,0,3.93l-.3.3c-1.08,1.08-1.64,3.17-1.24,4.65l2.8,10.42c.4,1.47-.49,2.36-1.96,1.97M37.78,50.75l-2.86.77c-1.48.4-3.18.22-3.79-.38-.61-.61-.61-1.61,0-2.21.61-.61,2.31-.78,3.79-.38l2.87.76c1.47.4,1.48,1.05,0,1.44M51.13,31.1c.61.61.78,2.31.39,3.78l-.76,2.87c-.39,1.47-1.04,1.48-1.44,0l-.77-2.87c-.4-1.47-.23-3.18.38-3.78.61-.61,1.6-.61,2.21,0M79.99,76.51l4.25-15.92c.39-1.48-.17-3.57-1.25-4.65l-11.73-11.71c-1.08-1.08-3.17-1.64-4.65-1.24l-10.38,2.79c-1.47.4-2.36-.48-1.96-1.96l2.78-10.39c.39-1.47-.17-3.57-1.25-4.64l-11.73-11.71c-1.08-1.08-3.17-1.64-4.65-1.24l-15.91,4.27c-1.48.4-3.01,1.93-3.4,3.4l-4.25,15.91c-.39,1.48.17,3.57,1.25,4.64l11.74,11.72c1.08,1.08,3.17,1.64,4.64,1.24l10.36-2.78c1.48-.4,2.36.48,1.96,1.96l-2.77,10.37c-.39,1.48.17,3.56,1.25,4.64l11.74,11.72c1.08,1.08,3.17,1.63,4.64,1.24l15.9-4.27c1.47-.39,3-1.93,3.4-3.4" fill="#c2d500"/>
  <path d="M54.89,20.78c-.05-.09-.1-.18-.14-.28.04.09.08.19.14.28" fill="#c2d500"/>
  <path d="M54.89,32.93c-.05-.09-.1-.18-.14-.28.04.09.08.19.14.28" fill="#c1d247"/>
  <path d="M54.69,20.3c-.03-.11-.06-.21-.08-.33.01.11.05.22.08.33" fill="#c2d500"/>
  <path d="M54.69,32.45c-.03-.11-.06-.21-.08-.33.01.11.05.22.08.33" fill="#c1d247"/>
  <path d="M82.39,44.49l.48-.48c.06-.05.1-.12.16-.18.97-1.12,1.47-3.06,1.1-4.46l-4.27-15.97c-.19-.72-.66-1.45-1.25-2.05h0s0,0,0,0c0,0,0,0,0,0h0c-.61-.59-1.33-1.06-2.05-1.25l-15.97-4.27c-1.4-.37-3.34.12-4.46,1.1-.06.05-.13.1-.18.16l-.48.48c-.05.05-.09.11-.14.17,0,0,0,0-.01.01h-.02s-.03.05-.08.11c-.5.64-.71,1.42-.6,2.14.02.11.05.22.08.33.02.07.04.13.07.2.04.1.08.19.14.28.1.16.2.33.36.48.15.15.29.24.44.34.45.29.9.38,1.34.35.34-.01.68-.09,1.01-.24.15-.05.3-.11.45-.17.38-.16.73-.31,1.04-.38.41-.09,1.11-.02,1.81.1.89.15,1.79.38,2.15.47.09.02.14.04.15.04,0,0,.02,0,.02,0l8.85,2.36c.72.19,1.45.66,2.06,1.25.59.61,1.06,1.34,1.25,2.06l2.36,8.85s0,.02,0,.02c0,.01.02.06.04.15.1.36.32,1.26.47,2.15.12.71.19,1.4.1,1.81-.07.3-.22.66-.38,1.04-.06.14-.12.29-.17.45-.14.32-.23.67-.24,1.01-.03.44.06.9.35,1.34.1.15.19.3.34.44.16.16.32.26.48.36.09.05.18.1.28.14.07.03.13.05.2.06.11.03.21.06.33.08.72.11,1.5-.1,2.14-.6.07-.05.11-.08.11-.08v-.02s.01,0,.02-.01c.05-.04.11-.08.16-.14" fill="#c2d500"/>
  <path d="M44.44,82.45l-.48.48c-.05.06-.12.1-.18.16-1.12.97-3.06,1.47-4.46,1.1l-15.97-4.27c-.72-.19-1.45-.66-2.05-1.25h0s0,0,0,0c0,0,0,0,0,0h0c-.59-.61-1.06-1.34-1.25-2.06l-4.27-15.97c-.37-1.4.12-3.34,1.1-4.46.05-.06.1-.13.16-.18l.48-.48c.05-.05.11-.09.16-.13,0,0,0,0,.01-.01v-.02s.05-.03.11-.07c.64-.5,1.42-.71,2.14-.6.11.02.22.05.33.08.07.02.13.04.2.06.1.04.19.08.28.14.16.09.33.2.48.36.15.14.24.29.34.44.29.45.38.9.35,1.34-.01.34-.09.68-.24,1.01-.05.15-.11.3-.17.44-.16.38-.31.74-.38,1.04-.09.41-.02,1.11.1,1.81.15.89.38,1.79.47,2.15.02.09.04.14.04.15,0,0,0,.02,0,.02l2.36,8.84c.19.72.66,1.45,1.25,2.06.61.59,1.34,1.06,2.06,1.25l8.85,2.36s.02,0,.02,0c.01,0,.06.02.15.04.36.09,1.26.32,2.15.47.71.12,1.4.19,1.81.09.3-.06.66-.22,1.04-.38.14-.06.29-.12.45-.17.32-.14.66-.23,1.01-.24.44-.03.9.06,1.34.35.15.1.3.19.44.34.15.16.26.32.36.48.05.09.1.18.14.28.03.07.05.13.07.2.03.11.06.21.08.33.11.72-.1,1.5-.6,2.14-.04.07-.07.11-.07.11h-.02s0,.01-.01.02c-.05.05-.09.11-.14.16" fill="#c2d500"/>
</svg>