<?xml version="1.0" encoding="UTF-8"?>
<svg id="Layer_1" xmlns="http://www.w3.org/2000/svg" baseProfile="tiny" version="1.2" viewBox="0 0 300 100">
  <!-- Generator: Adobe Illustrator 29.3.1, SVG Export Plug-In . SVG Version: 2.1.0 Build 151)  -->
  <g>
    <path d="M47.43,22.64c-.14-.09-.29-.19-.43-.33.13.13.28.24.43.33" fill="#c2d500"/>
    <path d="M46.53,21.58c-.03-.06-.04-.13-.06-.19.02.06.04.13.06.19" fill="#c2d500"/>
    <path d="M46.53,33.29c-.03-.06-.04-.13-.06-.19.02.06.04.13.06.19" fill="#c1d247"/>
    <path d="M47,22.32c-.15-.15-.25-.31-.34-.46.09.17.2.33.34.46" fill="#c2d500"/>
    <path d="M47,34.02c-.15-.15-.25-.31-.34-.46.09.17.2.33.34.46" fill="#c1d247"/>
    <path d="M63.65,74.91l-10.04,2.7c-1.42.38-3.44-.15-4.48-1.19l-1.86-1.85c-1.04-1.04-1.04-2.74,0-3.78l.3-.3c1.04-1.04,1.58-3.05,1.2-4.47l-2.7-10.04c-.38-1.42.47-2.27,1.89-1.89l10.05,2.68c1.42.38,3.44-.16,4.47-1.2l.29-.29c1.04-1.04,2.74-1.04,3.78,0l1.85,1.85c1.04,1.04,1.58,3.05,1.2,4.47l-2.68,10.05c-.38,1.42-1.85,2.9-3.27,3.28M40.95,68.25c-.58-.59-.75-2.23-.37-3.65l.74-2.76c.38-1.42,1-1.42,1.39,0l.74,2.76c.38,1.42.22,3.06-.37,3.65-.58.59-1.54.59-2.13,0M53.82,49.31l2.76-.74c1.42-.38,3.06-.22,3.64.37.58.59.58,1.54,0,2.12-.58.59-2.22.76-3.64.37l-2.76-.74c-1.42-.38-1.42-1,0-1.38M36.03,45.95l-10.05-2.68c-1.42-.38-3.44.16-4.47,1.21l-.29.29c-1.04,1.04-2.74,1.04-3.78,0l-1.85-1.85c-1.04-1.04-1.58-3.05-1.2-4.47l2.68-10.05c.38-1.42,1.85-2.9,3.27-3.28l10.04-2.7c1.42-.38,3.43.15,4.48,1.2l1.85,1.85c1.04,1.04,1.04,2.74,0,3.78l-.29.29c-1.04,1.04-1.58,3.06-1.2,4.48l2.7,10.04c.38,1.42-.47,2.27-1.89,1.89M30.18,50.72l-2.76.75c-1.42.38-3.06.21-3.65-.37-.59-.59-.59-1.55,0-2.13.59-.58,2.23-.75,3.65-.37l2.76.73c1.42.38,1.42,1.01,0,1.39M43.04,31.79c.59.58.76,2.23.37,3.64l-.74,2.76c-.38,1.42-1,1.42-1.39,0l-.74-2.76c-.38-1.42-.22-3.06.36-3.65.58-.59,1.54-.59,2.13,0M70.84,75.54l4.09-15.33c.38-1.42-.16-3.44-1.2-4.48l-11.3-11.28c-1.04-1.04-3.06-1.58-4.48-1.2l-10,2.69c-1.42.38-2.27-.47-1.89-1.89l2.67-10.01c.38-1.42-.16-3.43-1.2-4.47l-11.3-11.28c-1.04-1.04-3.06-1.58-4.48-1.19l-15.33,4.12c-1.42.38-2.9,1.86-3.27,3.28l-4.09,15.32c-.38,1.42.16,3.44,1.2,4.47l11.31,11.29c1.04,1.04,3.05,1.58,4.47,1.2l9.98-2.68c1.42-.38,2.27.47,1.89,1.89l-2.66,9.99c-.38,1.42.16,3.43,1.2,4.47l11.31,11.29c1.04,1.04,3.05,1.57,4.47,1.19l15.32-4.12c1.42-.38,2.89-1.86,3.27-3.28" fill="#c2d500"/>
    <path d="M46.66,21.85c-.05-.09-.09-.18-.13-.27.04.09.08.18.13.27" fill="#c2d500"/>
    <path d="M46.66,33.56c-.05-.09-.09-.18-.13-.27.04.09.08.18.13.27" fill="#c1d247"/>
    <path d="M46.46,21.39c-.03-.1-.06-.21-.08-.32.01.1.05.21.08.32" fill="#c2d500"/>
    <path d="M46.46,33.1c-.03-.1-.06-.21-.08-.32.01.1.05.21.08.32" fill="#c1d247"/>
    <path d="M73.15,44.69l.46-.46c.05-.05.1-.12.15-.18.94-1.08,1.42-2.95,1.06-4.29l-4.11-15.38c-.18-.69-.63-1.39-1.2-1.98h0s0,0,0,0c0,0,0,0,0,0h0c-.58-.57-1.28-1.02-1.98-1.2l-15.38-4.11c-1.35-.36-3.22.12-4.29,1.06-.06.05-.12.1-.18.15l-.46.46c-.05.05-.09.11-.13.16,0,0,0,0-.01.01h-.02s-.03.04-.07.11c-.48.62-.68,1.37-.58,2.06.02.11.05.21.08.32.02.06.04.13.06.19.04.09.08.18.13.27.09.16.19.32.34.46.14.14.28.24.43.33.43.28.87.37,1.29.33.33-.01.66-.09.97-.23.15-.05.29-.11.43-.17.37-.15.71-.3,1-.36.39-.09,1.07-.02,1.75.09.86.14,1.72.36,2.07.45.09.02.14.04.15.04,0,0,.02,0,.02,0l8.52,2.28c.69.19,1.4.64,1.98,1.21.57.59,1.02,1.29,1.21,1.98l2.28,8.52s0,.02,0,.02c0,.01.02.06.04.15.09.35.31,1.21.45,2.07.11.68.18,1.35.09,1.75-.06.29-.21.63-.36,1-.06.14-.11.28-.17.43-.14.31-.22.64-.23.97-.03.43.06.86.33,1.29.09.14.19.29.33.43.15.15.31.25.46.34.09.05.18.09.27.13.06.02.13.04.19.06.1.03.21.06.32.08.69.1,1.44-.1,2.06-.58.06-.04.1-.07.1-.07v-.02s.01,0,.02-.01c.05-.04.11-.08.16-.13" fill="#c2d500"/>
    <path d="M36.59,81.25l-.46.46c-.05.06-.12.1-.18.15-1.08.94-2.95,1.41-4.29,1.06l-15.38-4.11c-.69-.18-1.39-.63-1.98-1.2h0s0,0,0,0c0,0,0,0,0,0h0c-.57-.59-1.02-1.29-1.21-1.98l-4.11-15.38c-.36-1.34.12-3.22,1.06-4.29.05-.06.1-.12.15-.18l.46-.46c.05-.05.11-.09.16-.13,0,0,0,0,.01-.01v-.02s.04-.03.11-.07c.62-.48,1.37-.68,2.06-.58.11.02.21.05.31.08.06.02.13.04.19.06.09.04.18.08.27.13.16.09.32.19.46.34.14.14.24.28.33.43.28.43.37.87.34,1.29-.01.33-.09.66-.23.97-.05.15-.11.29-.17.43-.15.37-.3.71-.37,1-.09.39-.02,1.06.09,1.75.14.86.36,1.72.45,2.07.02.09.04.13.04.15,0,0,0,.02,0,.02l2.28,8.52c.19.7.64,1.4,1.21,1.98.59.57,1.29,1.02,1.98,1.21l8.52,2.28s.02,0,.02,0c.01,0,.06.02.15.04.35.09,1.21.31,2.07.45.68.11,1.35.18,1.75.09.29-.06.63-.21,1-.36.14-.06.28-.12.43-.17.31-.14.64-.22.97-.23.43-.03.86.06,1.29.33.14.09.29.19.43.33.15.15.25.31.34.46.05.09.09.18.13.27.02.06.04.13.06.19.03.1.06.21.08.32.1.69-.1,1.44-.58,2.06-.04.06-.07.1-.07.1h-.02s0,.01-.01.02c-.04.05-.08.11-.13.16" fill="#c2d500"/>
  </g>
  <g>
    <path d="M285.61,27.49h-1.1v-1.71h1.04c.45,0,.75.03.92.1.16.07.29.16.39.3.09.14.14.28.14.45,0,.26-.1.47-.29.62-.19.16-.55.24-1.09.24M286.82,28.44c-.12-.12-.28-.22-.48-.3.49-.04.88-.21,1.17-.52.3-.31.44-.67.44-1.08,0-.29-.09-.57-.26-.83-.18-.26-.41-.44-.71-.55-.3-.11-.78-.16-1.44-.16h-1.95v5.66h.92v-2.4h.54c.32,0,.56.07.73.2.24.17.56.61.96,1.32l.5.89h1.12l-.69-1.11c-.33-.53-.61-.9-.83-1.12" fill="#00946e"/>
    <path d="M289.7,29.94c-.39.7-.93,1.24-1.63,1.62-.69.39-1.42.59-2.18.59s-1.49-.2-2.18-.59c-.7-.38-1.24-.93-1.63-1.62-.39-.69-.58-1.42-.58-2.18s.2-1.5.59-2.2c.39-.7.94-1.25,1.64-1.63.7-.37,1.42-.57,2.16-.57s1.45.19,2.15.57c.7.38,1.25.92,1.64,1.63.39.7.59,1.44.59,2.2s-.19,1.49-.58,2.18M290.45,25.12c-.47-.84-1.12-1.49-1.97-1.94-.84-.46-1.7-.69-2.59-.69s-1.74.23-2.59.69c-.84.45-1.5,1.1-1.97,1.94-.47.85-.71,1.72-.71,2.64s.23,1.78.7,2.62c.47.84,1.12,1.49,1.95,1.95.83.46,1.71.69,2.62.69s1.78-.23,2.62-.69c.83-.46,1.49-1.11,1.95-1.95.46-.83.69-1.71.69-2.62s-.23-1.79-.7-2.64" fill="#00946e"/>
  </g>
  <g>
    <path d="M102.07,32.6c-4.27,0-7.66,1.14-10.17,3.42v-.47c0-1.45-1.02-2.43-3.05-2.95-2.03,0-3.17,1.19-3.42,3.58v27.22c.4,2.14,1.45,3.2,3.17,3.2h.22c2.05-.35,3.08-1.37,3.08-3.04v-12.31c0-2.83.27-4.83.82-6.03,2.14-4.04,5.14-6.06,9.01-6.06h.34c.88,0,1.88.15,3.01.44,4.63,1.69,6.94,5.27,6.94,10.71v13.12c0,1.74,1.02,2.79,3.08,3.17h.32c2.05-.4,3.08-1.37,3.08-2.92v-14.91c0-3.62-1.32-7.06-3.96-10.33-3.62-3.89-7.78-5.84-12.47-5.84" fill="#00946e"/>
    <path d="M175.05,32.5c-3.35,0-6.58,1.04-9.7,3.11-4.9,3.75-7.35,8.39-7.35,13.94,0,3.64,1.21,7.17,3.64,10.58,3.94,4.31,8.21,6.46,12.81,6.46h.94c.88,0,2.22-.17,4.02-.5,5.48-2.09,8.23-4.16,8.23-6.21v-.19c-.36-2.05-1.37-3.07-3.05-3.07h-.47l-1.29.28c-2.55,2.16-5.06,3.24-7.53,3.24-1.51,0-2.91-.25-4.21-.75-4.42-2.22-6.62-5.45-6.62-9.7,0-1.19.25-2.53.75-4.02,2.16-4.4,5.32-6.59,9.48-6.59h.69c1.57,0,3.13.4,4.68,1.19,2.08,1.57,3.5,2.36,4.27,2.36h.13c1.74,0,2.79-1.02,3.17-3.08v-.22c0-.54-.18-1.14-.53-1.79-3.64-3.35-7.66-5.02-12.06-5.02" fill="#00946e"/>
    <path d="M239.55,49.96c0,1.53-.42,3.13-1.25,4.8-2.32,3.58-5.27,5.37-8.82,5.37h-.91c-1.07,0-2.27-.25-3.61-.75-4.31-2.15-6.47-5.38-6.47-9.67v-.35c0-.96.21-2.14.63-3.52,2.2-4.52,5.46-6.78,9.8-6.78h.12c1.53,0,2.99.31,4.4.94,4.08,2.2,6.12,5.36,6.12,9.48v.47ZM229.03,32.6c-2.51,0-5.09.62-7.72,1.85-6.19,3.71-9.29,8.72-9.29,15.04,0,2.83.7,5.64,2.1,8.44,3.85,5.78,8.67,8.66,14.44,8.66h.91c4.19,0,7.55-1.19,10.11-3.58l-.03.72v.35c.69,1.67,1.75,2.51,3.17,2.51h.22c2.05-.36,3.08-1.37,3.08-3.04v-13.59c0-2.72-.57-5.37-1.73-7.94-3.75-6.28-8.83-9.42-15.26-9.42" fill="#00946e"/>
    <path d="M266.74,32.35c-4.16,0-7.54,1.15-10.14,3.45v-.5c0-1.45-1.03-2.43-3.08-2.95-2.03,0-3.17,1.2-3.42,3.61v27.44c.4,2.14,1.46,3.2,3.17,3.2h.19c2.09-.36,3.14-1.38,3.14-3.08v-13.94c0-1.53.21-2.87.63-4.02,1.97-4.4,5.06-6.59,9.29-6.59h.69c.98,0,2.55.35,4.71,1.04h.28c1.76,0,2.82-1.03,3.17-3.08v-.22c0-.86-.45-1.75-1.35-2.67-2.62-1.13-5.04-1.69-7.28-1.69" fill="#00946e"/>
    <path d="M128.13,47.23c.08-.61.51-1.58,1.29-2.92,2.22-3.39,5.04-5.09,8.48-5.09h1.29c2.26,0,4.56,1.11,6.91,3.33,1.74,2.34,2.61,3.9,2.61,4.68h-20.56ZM149.32,36.63c-.2-.15-.53-.48-.73-.62-2.43-1.93-5.24-3.06-8.43-3.37-.16-.02-.32-.03-.47-.04-.25-.02-.51-.03-.77-.04-.29,0-.57-.02-.86-.02-.32,0-.65.02-.98.05-.12.01-.24,0-.36.02-1.85.18-3.63.69-5.35,1.5-.41.17-.81.36-1.23.57-.48.3-.93.61-1.38.93-.47.32-.94.66-1.41,1.04-.11.11-.2.22-.31.32-3.68,3.25-5.58,7.27-5.71,12.06,0,.1,0,.19,0,.29,0,.08,0,.16,0,.24,0,.53.03,1.06.08,1.59,0,.03,0,.06,0,.09,0,.04.01.07.01.11.04.4.1.79.17,1.18,0,.03,0,.05,0,.08.07.38.15.75.24,1.12h.01c.7,2.7,2.1,5.26,4.21,7.69,4.34,3.91,8.87,5.41,13.39,5.26,2.54,0,4.01-.33,5.96-1.05,5.25-2.62,7.78-4.95,7.58-6.99l-.02-.19c-.55-2.01-1.66-2.93-3.33-2.77l-.47.05-1.25.41c-2.33,2.39-5.27,3.84-8.27,3.95-1.51.06-2.92.04-4.26-.34-3.44-1.32-5.7-3.33-6.81-6.02h.12v-.03s23.51,0,23.51,0c1.74,0,2.79-1.07,3.17-3.2v-.69c0-2.84-.63-5.49-1.89-7.94-1.23-2.1-2.62-3.84-4.18-5.23" fill="#00946e"/>
    <path d="M208.98,60.23h-.26s-.04,0-.06,0h-1.34s-1.31,0-1.31,0c-.37,0-.72-.08-1.05-.21h-.04s-.05-.03-.08-.04h-.02c-.72-.28-1.24-.83-1.58-1.65-.02-.04-.03-.07-.05-.11-.27-.71-.41-1.6-.41-2.69v-15.98h3.3l1.43-.05h.13s.05,0,.07-.01h.26s.03-.02.05-.03c1.49-.19,2.65-1.49,2.65-3.07,0-1.72-1.36-3.11-3.04-3.11h-4.85v-9.39c0-1.44-.97-2.37-2.92-2.79h-.53c-1.7,0-2.67,1.14-2.92,3.43v8.76h-3.05c-1.66,0-3,1.36-3.03,3.06v.02s0,.02,0,.02c0,0,0,.01,0,.02,0,.06.02.12.02.18,0,.13.01.26.04.37.03.15.07.3.12.45,0,0,0,.01,0,.01.39,1.13,1.37,1.94,2.56,2.06.03,0,.05.02.08.03l1.95.05h1.32v16.67c0,1.43.18,2.69.53,3.8,1.97,4.39,4.98,6.59,9.05,6.59h2.99c1.68,0,3.04-1.42,3.04-3.18s-1.36-3.18-3.04-3.18" fill="#00946e"/>
  </g>
</svg>